<svg width="184" height="73" viewBox="0 0 184 73" fill="none" xmlns="http://www.w3.org/2000/svg">
<g clip-path="url(#clip0_4_2464)">
<path d="M38.4879 57.2195H29.4908L27.2137 50.9842H11.3298L8.9972 57.2195H0L14.3289 20.4158H24.2147L38.4879 57.2195ZM25.0477 44.087L19.2718 28.251L13.4958 44.087H25.0477Z" fill="white"/>
<path d="M54.6919 57.8815C48.1011 57.8815 42.8805 55.9316 39.0299 52.0324L43.3063 46.0734C46.4905 49.3841 50.415 51.0391 55.0806 51.0391C57.1167 51.0391 58.6905 50.653 59.801 49.8807C60.9489 49.0714 61.5231 48.0966 61.5231 46.9562C61.5231 45.963 60.9862 45.1354 59.9124 44.4732C58.8755 43.8111 57.5613 43.3329 55.9688 43.0386C54.4141 42.7443 52.7107 42.3213 50.8596 41.7695C49.0083 41.2178 47.2866 40.5924 45.6945 39.8935C44.1394 39.1946 42.825 38.091 41.7512 36.5828C40.7145 35.0746 40.1962 33.2354 40.1962 31.0651C40.1962 27.9016 41.4736 25.253 44.0283 23.1195C46.5831 20.9491 49.9894 19.864 54.2473 19.864C60.1343 19.864 64.9475 21.5745 68.6875 24.9955L64.2997 30.734C61.3749 28.0487 57.7831 26.706 53.5254 26.706C51.8593 26.706 50.5632 27.0371 49.6377 27.6992C48.712 28.3614 48.2492 29.2626 48.2492 30.4029C48.2492 31.2858 48.7676 32.0399 49.8043 32.6652C50.8778 33.2538 52.1925 33.6952 53.7477 33.9895C55.3397 34.2838 57.0425 34.7252 58.8568 35.3137C60.7084 35.8655 62.4113 36.5093 63.9665 37.245C65.5585 37.9439 66.8732 39.0658 67.9096 40.6108C68.9834 42.119 69.5203 43.9399 69.5203 46.0734C69.5203 49.6048 68.2429 52.4558 65.688 54.6257C63.1705 56.7961 59.5051 57.8815 54.6919 57.8815Z" fill="white"/>
<path d="M143.758 57.2195H134.706L127.43 44.1421H121.654V57.2195H113.767V20.4158H131.096C134.909 20.4158 137.927 21.5193 140.149 23.7264C142.407 25.9335 143.536 28.7844 143.536 32.279C143.536 35.2953 142.74 37.7415 141.148 39.6176C139.593 41.4936 137.686 42.6891 135.428 43.2041L143.758 57.2195ZM129.929 37.2449C131.558 37.2449 132.891 36.8035 133.928 35.9207C134.965 35.0011 135.483 33.7872 135.483 32.279C135.483 30.7707 134.965 29.5753 133.928 28.6924C132.891 27.7728 131.558 27.313 129.929 27.313H121.654V37.2449H129.929Z" fill="white"/>
<path d="M184 57.2195H175.003L172.726 50.9842H156.842L154.509 57.2195H145.512L159.841 20.4158H169.727L184 57.2195ZM170.56 44.087L164.784 28.251L159.008 44.087H170.56Z" fill="white"/>
<g filter="url(#filter0_d_4_2464)">
<path fill-rule="evenodd" clip-rule="evenodd" d="M88.4128 73L90.6248 52.9704L92.3836 37.6864L88.4128 35.3137L84.4419 37.6864L86.1816 52.9704L88.4128 73Z" fill="#FF0000"/>
</g>
<g filter="url(#filter1_d_4_2464)">
<path d="M88.4032 0L93.6475 15.1747H110.618L96.8889 24.5532L102.133 39.7279L88.4032 30.3494L74.6733 39.7279L79.918 24.5532L66.1881 15.1747H83.159L88.4032 0Z" fill="#FF0000"/>
</g>
<path fill-rule="evenodd" clip-rule="evenodd" d="M88.4131 73L90.6252 52.9704L92.384 37.6864L88.4131 35.3137L84.4423 37.6864L86.1819 52.9704L88.4131 73Z" fill="#FF0000"/>
<path d="M88.4031 0L93.6473 15.1747H110.618L96.8888 24.5532L102.133 39.7279L88.4031 30.3494L74.6732 39.7279L79.9179 24.5532L66.188 15.1747H83.1588L88.4031 0Z" fill="#FF0000"/>
</g>
<defs>
<filter id="filter0_d_4_2464" x="80.4419" y="35.3137" width="15.9418" height="45.6863" filterUnits="userSpaceOnUse" color-interpolation-filters="sRGB">
<feFlood flood-opacity="0" result="BackgroundImageFix"/>
<feColorMatrix in="SourceAlpha" type="matrix" values="0 0 0 0 0 0 0 0 0 0 0 0 0 0 0 0 0 0 127 0" result="hardAlpha"/>
<feOffset dy="4"/>
<feGaussianBlur stdDeviation="2"/>
<feComposite in2="hardAlpha" operator="out"/>
<feColorMatrix type="matrix" values="0 0 0 0 0 0 0 0 0 0 0 0 0 0 0 0 0 0 0.25 0"/>
<feBlend mode="normal" in2="BackgroundImageFix" result="effect1_dropShadow_4_2464"/>
<feBlend mode="normal" in="SourceGraphic" in2="effect1_dropShadow_4_2464" result="shape"/>
</filter>
<filter id="filter1_d_4_2464" x="62.1881" y="0" width="52.4302" height="47.728" filterUnits="userSpaceOnUse" color-interpolation-filters="sRGB">
<feFlood flood-opacity="0" result="BackgroundImageFix"/>
<feColorMatrix in="SourceAlpha" type="matrix" values="0 0 0 0 0 0 0 0 0 0 0 0 0 0 0 0 0 0 127 0" result="hardAlpha"/>
<feOffset dy="4"/>
<feGaussianBlur stdDeviation="2"/>
<feComposite in2="hardAlpha" operator="out"/>
<feColorMatrix type="matrix" values="0 0 0 0 0 0 0 0 0 0 0 0 0 0 0 0 0 0 0.25 0"/>
<feBlend mode="normal" in2="BackgroundImageFix" result="effect1_dropShadow_4_2464"/>
<feBlend mode="normal" in="SourceGraphic" in2="effect1_dropShadow_4_2464" result="shape"/>
</filter>
<clipPath id="clip0_4_2464">
<rect width="184" height="73" fill="white"/>
</clipPath>
</defs>
</svg>
