<svg width="252" height="92" viewBox="0 0 252 92" fill="none" xmlns="http://www.w3.org/2000/svg">
<rect width="251.67" height="92" rx="8" fill="#131313"/>
<rect x="0.5" y="0.5" width="250.67" height="91" rx="7.5" stroke="white" stroke-opacity="0.1"/>
<path d="M80.2251 33.5125C77.6926 32.3387 74.9848 31.4857 72.1539 31C71.8062 31.6227 71.4 32.4602 71.1199 33.1264C68.1106 32.6781 65.129 32.6781 62.1749 33.1264C61.895 32.4602 61.4796 31.6227 61.1288 31C58.2948 31.4857 55.5839 32.3419 53.0514 33.5187C47.9435 41.165 46.5588 48.6215 47.2512 55.972C50.639 58.4782 53.9223 60.0007 57.1501 60.9969C57.9471 59.9104 58.6578 58.7554 59.2702 57.538C58.104 57.099 56.987 56.5573 55.9316 55.9284C56.2116 55.7229 56.4855 55.5081 56.7501 55.287C63.1873 58.2697 70.1815 58.2697 76.5418 55.287C76.8096 55.5081 77.0834 55.7229 77.3603 55.9284C76.3018 56.5604 75.1817 57.1021 74.0156 57.5411C74.6279 58.7554 75.3356 59.9135 76.1356 61C79.3666 60.0038 82.6529 58.4814 86.0408 55.972C86.8531 47.4508 84.6529 40.0629 80.2251 33.5125ZM60.1471 51.4514C58.2148 51.4514 56.6301 49.6644 56.6301 47.4882C56.6301 45.3119 58.181 43.5218 60.1471 43.5218C62.1134 43.5218 63.6981 45.3088 63.6643 47.4882C63.6673 49.6644 62.1134 51.4514 60.1471 51.4514ZM73.1447 51.4514C71.2123 51.4514 69.6277 49.6644 69.6277 47.4882C69.6277 45.3119 71.1784 43.5218 73.1447 43.5218C75.1109 43.5218 76.6957 45.3088 76.6618 47.4882C76.6618 49.6644 75.1109 51.4514 73.1447 51.4514Z" fill="url(#paint0_linear_2196_2725)"/>
<path d="M99.6565 38.6532H108.057C110.082 38.6532 111.792 38.9739 113.196 39.6121C114.596 40.2503 115.645 41.1407 116.341 42.2802C117.036 43.4196 117.386 44.7242 117.386 46.1937C117.386 47.6321 117.023 48.9365 116.297 50.104C115.571 51.2746 114.466 52.1992 112.98 52.8811C111.494 53.5629 109.654 53.9053 107.454 53.9053H99.6565V38.6532ZM107.368 50.0293C108.731 50.0293 109.78 49.6837 110.512 48.9957C111.245 48.3045 111.611 47.3643 111.611 46.1719C111.611 45.0666 111.285 44.1855 110.632 43.5255C109.98 42.8655 108.992 42.5324 107.672 42.5324H105.044V50.0293H107.368Z" fill="url(#paint1_linear_2196_2725)"/>
<path d="M129.963 53.8868C128.8 53.5817 127.75 53.1396 126.818 52.5574V48.9397C127.523 49.4907 128.467 49.9453 129.652 50.3034C130.836 50.6583 131.981 50.8357 133.089 50.8357C133.606 50.8357 133.997 50.7672 134.261 50.6302C134.526 50.4933 134.658 50.3283 134.658 50.1383C134.658 49.9205 134.588 49.7398 134.443 49.5935C134.298 49.4472 134.018 49.3257 133.603 49.223L131.018 48.6345C129.538 48.2859 128.489 47.8033 127.864 47.1838C127.24 46.5673 126.929 45.7579 126.929 44.7554C126.929 43.9117 127.199 43.1801 127.747 42.5543C128.292 41.9285 129.067 41.4459 130.073 41.1066C131.08 40.7641 132.255 40.5929 133.606 40.5929C134.812 40.5929 135.917 40.7236 136.923 40.9852C137.929 41.2467 138.76 41.5798 139.422 41.9876V45.4092C138.744 45.0013 137.969 44.6808 137.083 44.4379C136.2 44.1981 135.292 44.0798 134.357 44.0798C133.006 44.0798 132.332 44.3133 132.332 44.7772C132.332 44.9951 132.437 45.157 132.646 45.266C132.855 45.3749 133.239 45.487 133.797 45.6053L135.95 45.9977C137.357 46.2435 138.406 46.6763 139.095 47.2928C139.785 47.9092 140.129 48.8214 140.129 50.0293C140.129 51.3525 139.56 52.4017 138.418 53.1801C137.277 53.9584 135.658 54.3475 133.56 54.3475C132.326 54.3445 131.126 54.1919 129.963 53.8868Z" fill="url(#paint2_linear_2196_2725)"/>
<path d="M145.213 53.4289C143.98 52.8187 143.047 51.9906 142.425 50.9445C141.804 49.8985 141.49 48.7216 141.49 47.414C141.49 46.1065 141.813 44.9358 142.459 43.9053C143.106 42.8748 144.053 42.0654 145.303 41.4769C146.552 40.8885 148.044 40.5958 149.783 40.5958C151.936 40.5958 153.724 41.0535 155.146 41.9688V45.957C154.645 45.6082 154.06 45.325 153.392 45.107C152.724 44.8891 152.01 44.7801 151.247 44.7801C149.912 44.7801 148.869 45.026 148.115 45.5211C147.361 46.0161 146.983 46.6606 146.983 47.4606C146.983 48.2452 147.349 48.8866 148.081 49.391C148.814 49.8922 149.875 50.1444 151.269 50.1444C151.986 50.1444 152.694 50.0385 153.392 49.83C154.087 49.6183 154.688 49.3599 155.189 49.0547V52.9121C153.611 53.871 151.78 54.3505 149.696 54.3505C147.943 54.3442 146.447 54.0391 145.213 53.4289Z" fill="url(#paint3_linear_2196_2725)"/>
<path d="M160.518 53.429C159.275 52.8189 158.328 51.9845 157.675 50.9229C157.023 49.8612 156.694 48.6781 156.694 47.3705C156.694 46.063 157.02 44.8954 157.675 43.8711C158.33 42.8469 159.272 42.0436 160.51 41.4614C161.743 40.8792 163.217 40.5897 164.925 40.5897C166.633 40.5897 168.106 40.8792 169.34 41.4614C170.575 42.0436 171.516 42.8406 172.163 43.8587C172.809 44.8768 173.131 46.0443 173.131 47.3674C173.131 48.675 172.809 49.8581 172.163 50.9198C171.516 51.9813 170.571 52.8158 169.329 53.4259C168.085 54.0362 166.617 54.3412 164.922 54.3412C163.226 54.3412 161.759 54.0392 160.518 53.429ZM167.064 49.5624C167.586 49.0331 167.851 48.3326 167.851 47.4609C167.851 46.5891 167.59 45.8949 167.064 45.3811C166.541 44.8644 165.826 44.6059 164.922 44.6059C164.001 44.6059 163.281 44.8644 162.755 45.3811C162.233 45.898 161.971 46.5891 161.971 47.4609C161.971 48.3326 162.233 49.0331 162.755 49.5624C163.279 50.0916 164.001 50.3594 164.922 50.3594C165.826 50.3562 166.541 50.0916 167.064 49.5624Z" fill="url(#paint4_linear_2196_2725)"/>
<path d="M186.074 41.3991V46.1064C185.526 45.7422 184.818 45.5616 183.941 45.5616C182.793 45.5616 181.907 45.9135 181.291 46.6171C180.673 47.3207 180.365 48.4166 180.365 49.8984V53.9085H175.089V41.1594H180.258V45.213C180.544 43.731 181.009 42.6382 181.649 41.9315C182.285 41.2279 183.11 40.8761 184.113 40.8761C184.873 40.8761 185.526 41.0505 186.074 41.3991Z" fill="url(#paint5_linear_2196_2725)"/>
<path d="M203.607 38.2174V53.9085H198.329V51.0537C197.883 52.1277 197.206 52.9466 196.295 53.507C195.385 54.0643 194.259 54.3445 192.923 54.3445C191.729 54.3445 190.69 54.0518 189.799 53.4634C188.91 52.8749 188.224 52.0687 187.741 51.0443C187.261 50.02 187.018 48.8619 187.018 47.5668C187.003 46.2311 187.258 45.0325 187.784 43.9708C188.308 42.9092 189.049 42.081 190.003 41.4864C190.956 40.8918 192.046 40.5929 193.268 40.5929C195.782 40.5929 197.468 41.6981 198.329 43.9055V38.2174H203.607ZM197.541 49.4752C198.08 48.9459 198.348 48.2579 198.348 47.4173C198.348 46.6047 198.087 45.9416 197.563 45.4341C197.04 44.9266 196.323 44.6713 195.421 44.6713C194.533 44.6713 193.821 44.9298 193.289 45.4465C192.756 45.9634 192.492 46.6327 192.492 47.4609C192.492 48.289 192.756 48.9646 193.289 49.4876C193.821 50.0107 194.523 50.2722 195.4 50.2722C196.289 50.2691 197.003 50.0045 197.541 49.4752Z" fill="url(#paint6_linear_2196_2725)"/>
<path d="M121.833 42.5168C123.286 42.5168 124.464 41.4463 124.464 40.1257C124.464 38.8052 123.286 37.7347 121.833 37.7347C120.38 37.7347 119.202 38.8052 119.202 40.1257C119.202 41.4463 120.38 42.5168 121.833 42.5168Z" fill="url(#paint7_linear_2196_2725)"/>
<path d="M119.2 44.1638C120.812 44.8674 122.812 44.8985 124.462 44.1638V53.977H119.2V44.1638Z" fill="url(#paint8_linear_2196_2725)"/>
<defs>
<linearGradient id="paint0_linear_2196_2725" x1="125.346" y1="31" x2="125.346" y2="61" gradientUnits="userSpaceOnUse">
<stop stop-color="white"/>
<stop offset="1" stop-color="#D3D3D3"/>
</linearGradient>
<linearGradient id="paint1_linear_2196_2725" x1="125.346" y1="31" x2="125.346" y2="61" gradientUnits="userSpaceOnUse">
<stop stop-color="white"/>
<stop offset="1" stop-color="#D3D3D3"/>
</linearGradient>
<linearGradient id="paint2_linear_2196_2725" x1="125.346" y1="31" x2="125.346" y2="61" gradientUnits="userSpaceOnUse">
<stop stop-color="white"/>
<stop offset="1" stop-color="#D3D3D3"/>
</linearGradient>
<linearGradient id="paint3_linear_2196_2725" x1="125.346" y1="31" x2="125.346" y2="61" gradientUnits="userSpaceOnUse">
<stop stop-color="white"/>
<stop offset="1" stop-color="#D3D3D3"/>
</linearGradient>
<linearGradient id="paint4_linear_2196_2725" x1="125.346" y1="31" x2="125.346" y2="61" gradientUnits="userSpaceOnUse">
<stop stop-color="white"/>
<stop offset="1" stop-color="#D3D3D3"/>
</linearGradient>
<linearGradient id="paint5_linear_2196_2725" x1="125.346" y1="30.9999" x2="125.346" y2="60.9999" gradientUnits="userSpaceOnUse">
<stop stop-color="white"/>
<stop offset="1" stop-color="#D3D3D3"/>
</linearGradient>
<linearGradient id="paint6_linear_2196_2725" x1="125.346" y1="31" x2="125.346" y2="61" gradientUnits="userSpaceOnUse">
<stop stop-color="white"/>
<stop offset="1" stop-color="#D3D3D3"/>
</linearGradient>
<linearGradient id="paint7_linear_2196_2725" x1="125.346" y1="31" x2="125.346" y2="61" gradientUnits="userSpaceOnUse">
<stop stop-color="white"/>
<stop offset="1" stop-color="#D3D3D3"/>
</linearGradient>
<linearGradient id="paint8_linear_2196_2725" x1="125.346" y1="31" x2="125.346" y2="61" gradientUnits="userSpaceOnUse">
<stop stop-color="white"/>
<stop offset="1" stop-color="#D3D3D3"/>
</linearGradient>
</defs>
</svg>
