<svg width="252" height="92" viewBox="0 0 252 92" fill="none" xmlns="http://www.w3.org/2000/svg">
<rect width="251.67" height="92" rx="8" fill="#131313"/>
<rect x="0.5" y="0.5" width="250.67" height="91" rx="7.5" stroke="white" stroke-opacity="0.1"/>
<path fill-rule="evenodd" clip-rule="evenodd" d="M59.8236 43.9148C69.5409 39.6811 76.0207 36.89 79.2628 35.5415C88.5198 31.6912 90.4434 31.0223 91.6971 31.0002C91.9728 30.9954 92.5894 31.0637 92.9888 31.3878C93.326 31.6614 93.4188 32.0311 93.4632 32.2905C93.5076 32.5499 93.5629 33.1409 93.5189 33.6027C93.0173 38.8735 90.8467 51.6643 89.7424 57.5677C89.2751 60.0656 88.3551 60.9032 87.4644 60.9851C85.5287 61.1633 84.0588 59.7059 82.1839 58.4769C79.2501 56.5538 77.5927 55.3566 74.745 53.48C71.454 51.3113 73.5874 50.1193 75.463 48.1712C75.9538 47.6614 84.4827 39.9038 84.6478 39.2C84.6684 39.112 84.6876 38.7839 84.4927 38.6107C84.2978 38.4375 84.0101 38.4967 83.8025 38.5438C83.5083 38.6106 78.8215 41.7084 69.7423 47.8371C68.412 48.7506 67.2071 49.1957 66.1275 49.1723C64.9373 49.1466 62.6479 48.4994 60.9459 47.9462C58.8584 47.2676 57.1993 46.9088 57.3438 45.7564C57.419 45.1562 58.2456 44.5423 59.8236 43.9148Z" fill="url(#paint0_linear_2196_2683)"/>
<path d="M112.843 53.8571V41.0293H108.323V38.7588H120.042V41.0293H115.532V53.8571H112.843Z" fill="url(#paint1_linear_2196_2683)"/>
<path d="M123.913 54.0769C120.586 54.0769 118.577 51.8691 118.577 48.3431V48.3326C118.577 44.8379 120.617 42.536 123.788 42.536C126.958 42.536 128.925 44.7646 128.925 48.1129V48.9499H121.161C121.203 50.8961 122.27 52.047 123.965 52.047C125.263 52.047 126.11 51.3564 126.361 50.6136L126.382 50.5403H128.82L128.789 50.6554C128.444 52.3609 126.811 54.0769 123.913 54.0769ZM123.819 44.5763C122.438 44.5763 121.402 45.5075 121.193 47.213H126.393C126.205 45.4552 125.2 44.5763 123.819 44.5763Z" fill="url(#paint2_linear_2196_2683)"/>
<path d="M130.683 53.8571V38.7588H133.288V53.8571H130.683Z" fill="url(#paint3_linear_2196_2683)"/>
<path d="M140.382 54.0769C137.055 54.0769 135.046 51.8691 135.046 48.3431V48.3326C135.046 44.8379 137.086 42.536 140.257 42.536C143.427 42.536 145.394 44.7646 145.394 48.1129V48.9499H137.63C137.672 50.8961 138.739 52.047 140.434 52.047C141.732 52.047 142.579 51.3564 142.83 50.6136L142.851 50.5403H145.289L145.258 50.6554C144.913 52.3609 143.28 54.0769 140.382 54.0769ZM140.288 44.5763C138.907 44.5763 137.871 45.5075 137.662 47.213H142.862C142.674 45.4552 141.669 44.5763 140.288 44.5763Z" fill="url(#paint4_linear_2196_2683)"/>
<path d="M152.08 57.739C149.14 57.739 147.288 56.3997 146.974 54.6628L146.953 54.5686H149.516L149.548 54.6523C149.83 55.2906 150.72 55.7719 152.08 55.7719C153.775 55.7719 154.706 54.8721 154.706 53.4595V51.8587H154.654C154.037 53.041 152.781 53.7944 151.191 53.7944C148.407 53.7944 146.618 51.6599 146.618 48.207V48.1966C146.618 44.6914 148.428 42.536 151.232 42.536C152.802 42.536 154.016 43.373 154.643 44.6496H154.706V42.7662H157.312V53.5432C157.312 56.0544 155.292 57.739 152.08 57.739ZM152.007 51.7854C153.629 51.7854 154.717 50.4148 154.717 48.2593V48.2489C154.717 46.1039 153.618 44.7333 152.007 44.7333C150.333 44.7333 149.276 46.083 149.276 48.2384V48.2489C149.276 50.4357 150.333 51.7854 152.007 51.7854Z" fill="url(#paint5_linear_2196_2683)"/>
<path d="M159.446 53.8571V42.7662H162.051V44.6809H162.104C162.449 43.3417 163.37 42.536 164.646 42.536C164.971 42.536 165.274 42.5883 165.473 42.6406V44.9948C165.253 44.9111 164.855 44.8484 164.416 44.8484C162.941 44.8484 162.051 45.7796 162.051 47.4223V53.8571H159.446Z" fill="url(#paint6_linear_2196_2683)"/>
<path d="M169.836 54.0455C167.618 54.0455 166.122 52.6748 166.122 50.6973V50.6763C166.122 48.7093 167.649 47.5269 170.338 47.3595L173.236 47.1816V46.4178C173.236 45.2983 172.504 44.6182 171.186 44.6182C169.951 44.6182 169.198 45.1936 169.03 46.0098L169.009 46.1039H166.592L166.603 45.9784C166.76 44.0113 168.465 42.536 171.28 42.536C174.053 42.536 175.842 44.0008 175.842 46.2295V53.8571H173.236V52.1516H173.174C172.535 53.3131 171.301 54.0455 169.836 54.0455ZM168.716 50.5926C168.716 51.5029 169.47 52.0575 170.61 52.0575C172.106 52.0575 173.236 51.0635 173.236 49.7451V48.9081L170.704 49.065C169.417 49.1487 168.716 49.7033 168.716 50.5822V50.5926Z" fill="url(#paint7_linear_2196_2683)"/>
<path d="M177.945 53.8571V42.7662H180.55V44.5449H180.603C181.073 43.3312 182.214 42.536 183.679 42.536C185.227 42.536 186.347 43.3521 186.755 44.7751H186.818C187.351 43.394 188.67 42.536 190.271 42.536C192.457 42.536 193.891 44.0218 193.891 46.24V53.8571H191.285V46.8887C191.285 45.518 190.574 44.7333 189.297 44.7333C188.042 44.7333 187.184 45.6645 187.184 47.0038V53.8571H184.652V46.7527C184.652 45.5075 183.898 44.7333 182.685 44.7333C181.429 44.7333 180.55 45.7168 180.55 47.0665V53.8571H177.945Z" fill="url(#paint8_linear_2196_2683)"/>
<defs>
<linearGradient id="paint0_linear_2196_2683" x1="125.613" y1="31" x2="125.613" y2="61" gradientUnits="userSpaceOnUse">
<stop stop-color="white"/>
<stop offset="1" stop-color="#D3D3D3"/>
</linearGradient>
<linearGradient id="paint1_linear_2196_2683" x1="125.613" y1="31" x2="125.613" y2="61" gradientUnits="userSpaceOnUse">
<stop stop-color="white"/>
<stop offset="1" stop-color="#D3D3D3"/>
</linearGradient>
<linearGradient id="paint2_linear_2196_2683" x1="125.613" y1="31" x2="125.613" y2="61" gradientUnits="userSpaceOnUse">
<stop stop-color="white"/>
<stop offset="1" stop-color="#D3D3D3"/>
</linearGradient>
<linearGradient id="paint3_linear_2196_2683" x1="125.613" y1="31" x2="125.613" y2="61" gradientUnits="userSpaceOnUse">
<stop stop-color="white"/>
<stop offset="1" stop-color="#D3D3D3"/>
</linearGradient>
<linearGradient id="paint4_linear_2196_2683" x1="125.613" y1="31" x2="125.613" y2="61" gradientUnits="userSpaceOnUse">
<stop stop-color="white"/>
<stop offset="1" stop-color="#D3D3D3"/>
</linearGradient>
<linearGradient id="paint5_linear_2196_2683" x1="125.613" y1="31" x2="125.613" y2="61" gradientUnits="userSpaceOnUse">
<stop stop-color="white"/>
<stop offset="1" stop-color="#D3D3D3"/>
</linearGradient>
<linearGradient id="paint6_linear_2196_2683" x1="125.613" y1="31" x2="125.613" y2="61" gradientUnits="userSpaceOnUse">
<stop stop-color="white"/>
<stop offset="1" stop-color="#D3D3D3"/>
</linearGradient>
<linearGradient id="paint7_linear_2196_2683" x1="125.613" y1="31" x2="125.613" y2="61" gradientUnits="userSpaceOnUse">
<stop stop-color="white"/>
<stop offset="1" stop-color="#D3D3D3"/>
</linearGradient>
<linearGradient id="paint8_linear_2196_2683" x1="125.613" y1="31" x2="125.613" y2="61" gradientUnits="userSpaceOnUse">
<stop stop-color="white"/>
<stop offset="1" stop-color="#D3D3D3"/>
</linearGradient>
</defs>
</svg>
