<svg width="252" height="92" viewBox="0 0 252 92" fill="none" xmlns="http://www.w3.org/2000/svg">
<rect width="251.67" height="92" rx="8" fill="#131313"/>
<rect x="0.5" y="0.5" width="250.67" height="91" rx="7.5" stroke="white" stroke-opacity="0.1"/>
<path d="M92.0912 49.6124C92.0912 51.8898 89.9705 53.539 86.9867 53.539H79.9974V39.4036H86.7509C89.6565 39.4036 91.6985 40.9742 91.6985 43.173C91.6985 44.665 90.9131 45.6074 89.7351 46.1571C90.9918 46.6283 92.0912 47.8848 92.0912 49.6124ZM83.0602 41.9951V45.0577H86.6725C87.772 45.0577 88.4788 44.4294 88.4788 43.5657C88.4788 42.7018 87.6935 41.9951 86.6725 41.9951H83.0602ZM86.9867 50.9474C88.1646 50.9474 89.0284 50.2406 89.0284 49.2197C89.0284 48.1989 88.243 47.4922 86.9867 47.4922H83.0602V50.9474H86.9867Z" fill="url(#paint0_linear_2196_2710)"/>
<path d="M103.635 53.4604L98.7659 47.8848H97.9806V53.4604H94.8394V39.4036H97.9806V44.8221H98.7659L103.478 39.4036H107.168L101.279 46.1571L107.718 53.4604H103.635Z" fill="url(#paint1_linear_2196_2710)"/>
<path d="M107.718 46.4713C107.718 42.2306 110.859 39.168 115.257 39.168C119.655 39.168 122.796 42.2306 122.796 46.4713C122.796 50.7119 119.655 53.7745 115.257 53.7745C110.859 53.7745 107.718 50.7119 107.718 46.4713ZM119.498 46.4713C119.498 43.8012 117.77 41.995 115.257 41.995C112.744 41.995 111.017 43.8012 111.017 46.4713C111.017 49.1413 112.744 50.9475 115.257 50.9475C117.77 50.9475 119.498 49.1413 119.498 46.4713Z" fill="url(#paint2_linear_2196_2710)"/>
<path d="M134.811 39.4036H137.952V53.4604H134.811V47.8063H128.528V53.4604H125.387V39.4036H128.528V44.9791H134.811V39.4036Z" fill="url(#paint3_linear_2196_2710)"/>
<path d="M144.705 53.4604V42.2307H139.836V39.4036H152.637V42.2307H147.768V53.4604H144.705Z" fill="url(#paint4_linear_2196_2710)"/>
<path d="M166.144 45.6075V53.4604H163.866L163.238 51.2616C162.531 52.4395 161.04 53.7745 158.762 53.7745C155.935 53.7745 153.893 51.8898 153.893 49.2983C153.893 46.7068 155.935 44.9007 160.097 44.9007H163.16C163.003 43.0945 162.06 41.8381 160.333 41.8381C158.919 41.8381 157.977 42.6233 157.505 43.4871L154.678 43.0159C155.385 40.5815 157.819 39.168 160.489 39.168C163.944 39.168 166.144 41.5239 166.144 45.6075ZM163.081 47.335H160.175C157.819 47.335 157.034 48.1204 157.034 49.1413C157.034 50.3192 157.977 51.1046 159.548 51.1046C161.59 51.1046 163.081 49.6125 163.081 47.335Z" fill="url(#paint5_linear_2196_2710)"/>
<path d="M178.237 53.4604L173.368 47.8848H172.583V53.4604H169.441V39.4036H172.583V44.8221H173.368L178.08 39.4036H181.771L175.881 46.1571L182.32 53.4604H178.237Z" fill="url(#paint6_linear_2196_2710)"/>
<path d="M187.975 53.4604V42.2307H183.105V39.4036H195.906V42.2307H191.038V53.4604H187.975Z" fill="url(#paint7_linear_2196_2710)"/>
<path d="M211.612 47.335H200.304C200.618 49.5339 202.189 50.9475 204.545 50.9475C206.193 50.9475 207.45 50.2407 208.157 49.2198L211.062 49.691C210.042 52.361 207.293 53.7745 204.309 53.7745C200.068 53.7745 197.005 50.7119 197.005 46.4713C197.005 42.2306 200.068 39.168 204.309 39.168C208.549 39.168 211.612 42.2306 211.612 46.3141C211.691 46.7068 211.612 47.021 211.612 47.335ZM200.54 44.9007H208.314C207.764 43.173 206.351 41.9165 204.387 41.9165C202.503 41.8381 201.01 43.0945 200.54 44.9007Z" fill="url(#paint8_linear_2196_2710)"/>
<path fill-rule="evenodd" clip-rule="evenodd" d="M42.0564 33.1096C39.9477 35.2183 39.9477 38.6122 39.9477 45.4001V46.6C39.9477 53.3879 39.9477 56.7818 42.0564 58.8906C44.1651 60.9992 47.5591 60.9992 54.347 60.9992H55.5469C62.3347 60.9992 65.7287 60.9992 67.8373 58.8906C69.9459 56.7818 69.9459 53.3879 69.9459 46.6V45.4001C69.9459 38.6122 69.9459 35.2183 67.8373 33.1096C65.7287 31.0009 62.3347 31.0009 55.5469 31.0009H54.347C47.5591 31.0009 44.1651 31.0009 42.0564 33.1096ZM45.01 40.1254C45.1725 47.925 49.0722 52.6122 55.9093 52.6122H56.2969V48.15C58.8092 48.3999 60.709 50.2374 61.4715 52.6122H65.0213C64.0464 49.0624 61.484 47.1 59.884 46.3501C61.484 45.4251 63.7338 43.1753 64.2713 40.1254H61.0463C60.3464 42.6003 58.2718 44.8501 56.2969 45.0626V40.1254H53.0719V48.7749C51.0721 48.275 48.5473 45.8502 48.4348 40.1254H45.01Z" fill="url(#paint9_linear_2196_2710)"/>
<defs>
<linearGradient id="paint0_linear_2196_2710" x1="125.798" y1="31.0009" x2="125.798" y2="60.9992" gradientUnits="userSpaceOnUse">
<stop stop-color="white"/>
<stop offset="1" stop-color="#D3D3D3"/>
</linearGradient>
<linearGradient id="paint1_linear_2196_2710" x1="125.798" y1="31.0009" x2="125.798" y2="60.9992" gradientUnits="userSpaceOnUse">
<stop stop-color="white"/>
<stop offset="1" stop-color="#D3D3D3"/>
</linearGradient>
<linearGradient id="paint2_linear_2196_2710" x1="125.797" y1="31.0008" x2="125.797" y2="60.9992" gradientUnits="userSpaceOnUse">
<stop stop-color="white"/>
<stop offset="1" stop-color="#D3D3D3"/>
</linearGradient>
<linearGradient id="paint3_linear_2196_2710" x1="125.797" y1="31.0009" x2="125.797" y2="60.9992" gradientUnits="userSpaceOnUse">
<stop stop-color="white"/>
<stop offset="1" stop-color="#D3D3D3"/>
</linearGradient>
<linearGradient id="paint4_linear_2196_2710" x1="125.797" y1="31.0009" x2="125.797" y2="60.9992" gradientUnits="userSpaceOnUse">
<stop stop-color="white"/>
<stop offset="1" stop-color="#D3D3D3"/>
</linearGradient>
<linearGradient id="paint5_linear_2196_2710" x1="125.797" y1="31.0008" x2="125.797" y2="60.9992" gradientUnits="userSpaceOnUse">
<stop stop-color="white"/>
<stop offset="1" stop-color="#D3D3D3"/>
</linearGradient>
<linearGradient id="paint6_linear_2196_2710" x1="125.797" y1="31.0009" x2="125.797" y2="60.9992" gradientUnits="userSpaceOnUse">
<stop stop-color="white"/>
<stop offset="1" stop-color="#D3D3D3"/>
</linearGradient>
<linearGradient id="paint7_linear_2196_2710" x1="125.797" y1="31.0009" x2="125.797" y2="60.9992" gradientUnits="userSpaceOnUse">
<stop stop-color="white"/>
<stop offset="1" stop-color="#D3D3D3"/>
</linearGradient>
<linearGradient id="paint8_linear_2196_2710" x1="125.796" y1="31.0008" x2="125.796" y2="60.9992" gradientUnits="userSpaceOnUse">
<stop stop-color="white"/>
<stop offset="1" stop-color="#D3D3D3"/>
</linearGradient>
<linearGradient id="paint9_linear_2196_2710" x1="125.798" y1="31.0009" x2="125.798" y2="60.9992" gradientUnits="userSpaceOnUse">
<stop stop-color="white"/>
<stop offset="1" stop-color="#D3D3D3"/>
</linearGradient>
</defs>
</svg>
