<svg width="252" height="92" viewBox="0 0 252 92" fill="none" xmlns="http://www.w3.org/2000/svg">
<rect width="251.67" height="92" rx="8" fill="#131313"/>
<rect x="0.5" y="0.5" width="250.67" height="91" rx="7.5" stroke="white" stroke-opacity="0.1"/>
<path d="M75.4778 52.4285V39.5714L86.6119 46L75.4778 52.4285ZM100.296 35.6845C99.8035 33.8407 98.3514 32.3884 96.5075 31.8956C93.1651 31 79.7634 31 79.7634 31C79.7634 31 66.3618 31 63.0195 31.8956C61.1757 32.3884 59.7234 33.8407 59.2306 35.6845C58.335 39.0268 58.335 45.9999 58.335 45.9999C58.335 45.9999 58.335 52.9733 59.2306 56.3154C59.7234 58.1591 61.1757 59.6115 63.0195 60.1042C66.3618 61 79.7634 61 79.7634 61C79.7634 61 93.1651 61 96.5075 60.1042C98.3514 59.6115 99.8035 58.1591 100.296 56.3154C101.192 52.9733 101.192 45.9999 101.192 45.9999C101.192 45.9999 101.192 39.0268 100.296 35.6845Z" fill="url(#paint0_linear_2196_2697)"/>
<path d="M125.292 55.3497C125.527 54.7372 125.645 53.7361 125.645 52.3467V46.4926C125.645 45.1442 125.527 44.1586 125.292 43.5352C125.057 42.9122 124.643 42.6004 124.051 42.6004C123.479 42.6004 123.075 42.9122 122.84 43.5352C122.605 44.1586 122.488 45.1442 122.488 46.4926V52.3467C122.488 53.7361 122.6 54.7372 122.825 55.3497C123.05 55.9629 123.458 56.2691 124.051 56.2691C124.643 56.2691 125.057 55.9629 125.292 55.3497ZM120.542 58.2921C119.694 57.7206 119.091 56.8315 118.734 55.6256C118.376 54.4205 118.198 52.8165 118.198 50.8141V48.0864C118.198 46.0637 118.401 44.4392 118.81 43.2134C119.219 41.9875 119.857 41.0939 120.726 40.5318C121.594 39.9701 122.733 39.689 124.143 39.689C125.532 39.689 126.646 39.9752 127.484 40.5471C128.321 41.1191 128.934 42.0132 129.323 43.2287C129.71 44.4445 129.905 46.0637 129.905 48.0864V50.8141C129.905 52.8165 129.716 54.4257 129.338 55.6412C128.96 56.8569 128.347 57.7459 127.499 58.3074C126.651 58.8692 125.502 59.1503 124.051 59.1503C122.559 59.1503 121.389 58.864 120.542 58.2921Z" fill="url(#paint1_linear_2196_2697)"/>
<path d="M186.173 42.9516C185.958 43.2173 185.815 43.6515 185.744 44.254C185.671 44.8568 185.637 45.7711 185.637 46.9969V48.3455H188.731V46.9969C188.731 45.7918 188.69 44.8774 188.609 44.254C188.528 43.631 188.38 43.1919 188.165 42.9363C187.95 42.6809 187.618 42.553 187.169 42.553C186.719 42.553 186.387 42.6862 186.173 42.9516ZM185.637 50.8588V51.8089C185.637 53.0147 185.671 53.9186 185.744 54.5211C185.815 55.124 185.963 55.5634 186.188 55.8394C186.413 56.1147 186.76 56.2531 187.23 56.2531C187.863 56.2531 188.297 56.0077 188.533 55.5172C188.768 55.0269 188.895 54.2098 188.915 53.0653L192.563 53.28C192.583 53.4439 192.594 53.6686 192.594 53.954C192.594 55.6911 192.119 56.9886 191.169 57.8467C190.218 58.7045 188.875 59.1338 187.138 59.1338C185.054 59.1338 183.593 58.4803 182.756 57.1721C181.917 55.8651 181.499 53.8421 181.499 51.104V47.8245C181.499 45.0049 181.933 42.9468 182.802 41.6488C183.67 40.3515 185.156 39.7028 187.261 39.7028C188.711 39.7028 189.825 39.9684 190.601 40.4995C191.378 41.0312 191.924 41.8586 192.241 42.982C192.557 44.106 192.716 45.659 192.716 47.6406V50.8588H185.637Z" fill="url(#paint2_linear_2196_2697)"/>
<path d="M110.243 50.5069L105.431 33.1293H109.63L111.316 41.0059C111.745 42.9474 112.061 44.6024 112.266 45.9709H112.388C112.531 44.9902 112.848 43.3457 113.338 41.0367L115.085 33.1293H119.284L114.411 50.5069V58.8437H110.243V50.5069Z" fill="url(#paint3_linear_2196_2697)"/>
<path d="M143.561 40.0564V58.8436H140.251L139.883 56.545H139.791C138.892 58.2817 137.543 59.1498 135.745 59.1498C134.499 59.1498 133.58 58.7417 132.987 57.9241C132.394 57.1073 132.098 55.8299 132.098 54.0932V40.0564H136.328V53.8478C136.328 54.6861 136.42 55.2834 136.604 55.6409C136.787 55.9987 137.094 56.1771 137.523 56.1771C137.891 56.1771 138.243 56.0652 138.58 55.8398C138.917 55.6152 139.168 55.3297 139.331 54.9822V40.0564H143.561Z" fill="url(#paint4_linear_2196_2697)"/>
<path d="M165.255 40.0564V58.8436H161.945L161.577 56.545H161.486C160.586 58.2817 159.237 59.1498 157.44 59.1498C156.193 59.1498 155.274 58.7417 154.681 57.9241C154.089 57.1073 153.793 55.8299 153.793 54.0932V40.0564H158.022V53.8478C158.022 54.6861 158.114 55.2834 158.297 55.6409C158.482 55.9987 158.788 56.1771 159.217 56.1771C159.585 56.1771 159.938 56.0652 160.274 55.8398C160.612 55.6152 160.862 55.3297 161.026 54.9822V40.0564H165.255Z" fill="url(#paint5_linear_2196_2697)"/>
<path d="M155.053 36.5318H150.855V58.8436H146.717V36.5318H142.519V33.1298H155.053V36.5318Z" fill="url(#paint6_linear_2196_2697)"/>
<path d="M175.376 50.723C175.376 52.0921 175.319 53.1649 175.208 53.9409C175.095 54.7179 174.905 55.2694 174.641 55.596C174.375 55.923 174.016 56.0863 173.568 56.0863C173.22 56.0863 172.899 56.0049 172.602 55.841C172.305 55.6777 172.066 55.4327 171.882 55.1054V44.44C172.024 43.9296 172.27 43.5105 172.618 43.1836C172.965 42.8571 173.342 42.6932 173.751 42.6932C174.18 42.6932 174.512 42.8619 174.748 43.1988C174.983 43.5359 175.145 44.103 175.238 44.9C175.33 45.6966 175.376 46.8306 175.376 48.3017V50.723ZM179.253 43.0596C178.997 41.8749 178.584 41.0169 178.011 40.4852C177.439 39.9544 176.653 39.6886 175.651 39.6886C174.875 39.6886 174.15 39.9084 173.476 40.3474C172.801 40.7868 172.28 41.3641 171.913 42.0792H171.882V32.1797H167.806V58.8434H171.299L171.729 57.0661H171.821C172.148 57.6993 172.637 58.2 173.292 58.5677C173.945 58.9354 174.671 59.1194 175.468 59.1194C176.897 59.1194 177.95 58.4602 178.624 57.1426C179.298 55.8245 179.636 53.7664 179.636 50.967V47.9941C179.636 45.8899 179.508 44.245 179.253 43.0596Z" fill="url(#paint7_linear_2196_2697)"/>
<defs>
<linearGradient id="paint0_linear_2196_2697" x1="125.526" y1="31" x2="125.526" y2="61" gradientUnits="userSpaceOnUse">
<stop stop-color="white"/>
<stop offset="1" stop-color="#D3D3D3"/>
</linearGradient>
<linearGradient id="paint1_linear_2196_2697" x1="125.526" y1="31" x2="125.526" y2="61" gradientUnits="userSpaceOnUse">
<stop stop-color="white"/>
<stop offset="1" stop-color="#D3D3D3"/>
</linearGradient>
<linearGradient id="paint2_linear_2196_2697" x1="125.526" y1="31" x2="125.526" y2="61" gradientUnits="userSpaceOnUse">
<stop stop-color="white"/>
<stop offset="1" stop-color="#D3D3D3"/>
</linearGradient>
<linearGradient id="paint3_linear_2196_2697" x1="125.526" y1="31" x2="125.526" y2="61" gradientUnits="userSpaceOnUse">
<stop stop-color="white"/>
<stop offset="1" stop-color="#D3D3D3"/>
</linearGradient>
<linearGradient id="paint4_linear_2196_2697" x1="125.526" y1="30.9999" x2="125.526" y2="60.9999" gradientUnits="userSpaceOnUse">
<stop stop-color="white"/>
<stop offset="1" stop-color="#D3D3D3"/>
</linearGradient>
<linearGradient id="paint5_linear_2196_2697" x1="125.526" y1="30.9999" x2="125.526" y2="60.9999" gradientUnits="userSpaceOnUse">
<stop stop-color="white"/>
<stop offset="1" stop-color="#D3D3D3"/>
</linearGradient>
<linearGradient id="paint6_linear_2196_2697" x1="125.526" y1="31" x2="125.526" y2="61" gradientUnits="userSpaceOnUse">
<stop stop-color="white"/>
<stop offset="1" stop-color="#D3D3D3"/>
</linearGradient>
<linearGradient id="paint7_linear_2196_2697" x1="125.526" y1="31" x2="125.526" y2="61" gradientUnits="userSpaceOnUse">
<stop stop-color="white"/>
<stop offset="1" stop-color="#D3D3D3"/>
</linearGradient>
</defs>
</svg>
